<svg width="48" height="48" viewBox="0 0 48 48" fill="none" xmlns="http://www.w3.org/2000/svg">
<rect width="48" height="48" fill="#3337BC"/>
<path d="M32.8885 6.22187C32.8885 5.63259 32.6544 5.06745 32.2378 4.65077C31.8211 4.23409 31.2559 4 30.6667 4H17.3333C16.7441 4 16.1789 4.23409 15.7622 4.65077C15.3456 5.06745 15.1115 5.63259 15.1115 6.22187V12.8885H32.8885V6.22187ZM44 41.7781V15.1115C44.0001 14.8196 43.9428 14.5306 43.8312 14.2609C43.7196 13.9912 43.5559 13.7461 43.3496 13.5397C43.1433 13.3332 42.8983 13.1695 42.6287 13.0578C42.359 12.946 42.07 12.8885 41.7781 12.8885H6.22187C5.93 12.8885 5.64099 12.946 5.37135 13.0578C5.10171 13.1695 4.85673 13.3332 4.65039 13.5397C4.44406 13.7461 4.28042 13.9912 4.16882 14.2609C4.05723 14.5306 3.99986 14.8196 4 15.1115V41.7781C4 42.3674 4.23409 42.9326 4.65077 43.3492C5.06745 43.7659 5.63259 44 6.22187 44H41.7781C42.3674 44 42.9326 43.7659 43.3492 43.3492C43.7659 42.9326 44 42.3674 44 41.7781Z" stroke="white" stroke-width="2.5" stroke-linecap="round" stroke-linejoin="round"/>
<path d="M21.7781 28.4448H16.5333C14.8086 28.4302 13.1254 27.9138 11.6891 26.9588C10.2528 26.0038 9.12551 24.6515 8.44476 23.0667L4.39996 13.8443C4.60391 13.5497 4.87615 13.3089 5.19342 13.1425C5.51069 12.976 5.86355 12.8889 6.22183 12.8885H41.7781C42.1364 12.8889 42.4892 12.976 42.8065 13.1425C43.1238 13.3089 43.396 13.5497 43.6 13.8443L39.5552 23.0667C38.8744 24.6515 37.7471 26.0038 36.3108 26.9588C34.8746 27.9138 33.1914 28.4302 31.4666 28.4448H26.2218" stroke="white" stroke-width="2.5" stroke-linecap="round" stroke-linejoin="round"/>
<path d="M26.2218 26.2218H21.7781V30.6666H26.2218V26.2218Z" stroke="white" stroke-width="2" stroke-linecap="round" stroke-linejoin="round"/>
</svg>
