<svg width="48" height="48" viewBox="0 0 48 48" fill="none" xmlns="http://www.w3.org/2000/svg">
<g clip-path="url(#clip0_42_185)">
<rect width="48" height="48" fill="white"/>
<path d="M11.9166 15.75L21.8757 25.7091C22.5493 26.3824 23.0836 27.1819 23.448 28.0618C23.8125 28.9417 24.0001 29.8848 24 30.8373V35.0833M11.9166 15.75H19.1666M11.9166 15.75V23" stroke="black" stroke-width="2.5" stroke-linecap="round"/>
<path d="M36.0833 15.75L26.1242 25.7091C25.4507 26.3824 24.9164 27.1819 24.5519 28.0618C24.1874 28.9417 23.9999 29.8848 24 30.8373V42.3333M36.0833 15.75H28.8333M36.0833 15.75V23" stroke="black" stroke-width="2.5" stroke-linecap="round"/>
<path d="M33.6667 39.9167H34.15C38.21 39.9167 40.24 39.9167 41.7915 39.1265C43.1556 38.4314 44.2647 37.3223 44.9598 35.9582C45.75 34.4067 45.75 32.3767 45.75 28.3167V17.6834C45.75 13.6234 45.75 11.5934 44.9598 10.0419C44.2647 8.67776 43.1556 7.5687 41.7915 6.87362C40.24 6.08337 38.21 6.08337 34.15 6.08337H13.85C9.79 6.08337 7.76 6.08337 6.2085 6.87362C4.84439 7.5687 3.73532 8.67776 3.04025 10.0419C2.25 11.5934 2.25 13.6234 2.25 17.6834V28.3167C2.25 32.3767 2.25 34.4067 3.04025 35.9582C3.73532 37.3223 4.84439 38.4314 6.2085 39.1265C7.76 39.9167 9.79 39.9167 13.85 39.9167H14.3333" stroke="black" stroke-width="2.5" stroke-linecap="round"/>
</g>
<defs>
<clipPath id="clip0_42_185">
<rect width="48" height="48" fill="white"/>
</clipPath>
</defs>
</svg>
