<svg width="48" height="48" viewBox="0 0 48 48" fill="none" xmlns="http://www.w3.org/2000/svg">
<rect width="48" height="48" fill="#3337BC"/>
<path d="M24.2933 42V12.7273M24.2933 42V42C20.2288 37.1903 14.1446 34.5641 7.8567 34.9051L6.35046 34.9868C6.21801 34.994 6.10667 34.8885 6.10667 34.7558V12.0909M24.2933 42V42C21.5882 40.7425 18.6411 40.0909 15.6579 40.0909H2.78704C2.35237 40.0909 2 39.7385 2 39.3039V13.0909C2 12.5386 2.44772 12.0909 3 12.0909H6.10667M24.2933 42V42C27.6184 37.5918 32.8198 35 38.3414 35H41.651C41.7848 35 41.8933 34.8915 41.8933 34.7576V12.0909M24.2933 42V42C27.7867 40.7369 31.4731 40.0909 35.1879 40.0909H45.1132C45.603 40.0909 46 39.6939 46 39.2041V13.0909C46 12.5386 45.5523 12.0909 45 12.0909H41.8933M24.2933 12.7273L24.0085 12.5286C18.8472 8.92963 12.7064 7 6.41427 7V7C6.24438 7 6.10667 7.13772 6.10667 7.3076V12.0909M24.2933 12.7273V12.7273C29.2436 9.00983 35.267 7 41.4577 7H41.6031C41.7634 7 41.8933 7.12993 41.8933 7.2902V12.0909" stroke="white" stroke-width="2.5"/>
</svg>
