<svg width="48" height="48" viewBox="0 0 48 48" fill="none" xmlns="http://www.w3.org/2000/svg">
<g clip-path="url(#clip0_42_135)">
<rect width="48" height="48" fill="white"/>
<path d="M40.911 7.08899L45.939 8.09399C46.209 8.14799 46.431 8.34599 46.509 8.61299C46.5484 8.74269 46.5519 8.88064 46.5192 9.01218C46.4864 9.14371 46.4186 9.26391 46.323 9.35999L42.204 13.482C41.7104 13.9728 41.043 14.2488 40.347 14.25H36.93L28.35 22.833C28.5137 23.4511 28.5438 24.0969 28.4383 24.7275C28.3328 25.3581 28.0942 25.959 27.7382 26.4902C27.3823 27.0213 26.9173 27.4705 26.3741 27.8078C25.831 28.1452 25.2222 28.3629 24.5883 28.4465C23.9544 28.53 23.31 28.4776 22.6979 28.2926C22.0859 28.1076 21.5203 27.7943 21.0389 27.3736C20.5574 26.9529 20.1712 26.4344 19.9058 25.8527C19.6405 25.2709 19.5021 24.6394 19.5 24C19.4999 23.3095 19.6586 22.6282 19.964 22.0088C20.2694 21.3895 20.7132 20.8488 21.2611 20.4285C21.809 20.0082 22.4463 19.7197 23.1236 19.5852C23.8009 19.4507 24.5001 19.4739 25.167 19.653L33.75 11.067V7.65599C33.75 6.95999 34.026 6.29099 34.518 5.79899L38.64 1.67699C38.7361 1.58138 38.8563 1.51359 38.9878 1.48084C39.1193 1.44809 39.2573 1.4516 39.387 1.49099C39.654 1.56899 39.852 1.79099 39.906 2.06099L40.911 7.08899Z" fill="black"/>
<path d="M6.00002 24C6.0031 26.5739 6.55815 29.1172 7.62772 31.4583C8.69729 33.7994 10.2565 35.884 12.2002 37.5713C14.1439 39.2586 16.4268 40.5094 18.895 41.2394C21.3632 41.9694 23.9593 42.1615 26.5081 41.8029C29.0568 41.4442 31.4991 40.5432 33.67 39.1604C35.8409 37.7777 37.69 35.9454 39.0926 33.7873C40.4952 31.6291 41.4187 29.1953 41.8007 26.6499C42.1827 24.1045 42.0143 21.5068 41.307 19.032C41.2077 18.7429 41.1683 18.4366 41.1911 18.1317C41.214 17.8269 41.2987 17.5298 41.44 17.2588C41.5813 16.9877 41.7763 16.7482 42.0131 16.5548C42.2499 16.3615 42.5236 16.2184 42.8175 16.1342C43.1114 16.0501 43.4193 16.0266 43.7226 16.0652C44.0259 16.1039 44.3181 16.2038 44.5815 16.359C44.8449 16.5142 45.0739 16.7213 45.2547 16.9679C45.4355 17.2144 45.5642 17.4951 45.633 17.793C47.0026 22.5856 46.7424 27.6972 44.8934 32.326C43.0443 36.9548 39.7109 40.8388 35.4163 43.3686C31.1216 45.8985 26.1085 46.9311 21.1637 46.3044C16.2188 45.6777 11.6218 43.4272 8.09402 39.906C4.57004 36.3791 2.31714 31.7817 1.68903 26.8357C1.06091 21.8896 2.09316 16.8751 4.62369 12.5792C7.15422 8.2834 11.0397 4.9496 15.6702 3.10123C20.3007 1.25287 25.4139 0.99461 30.207 2.36701C30.7777 2.53385 31.2592 2.91981 31.5462 3.44057C31.8333 3.96132 31.9025 4.57451 31.7387 5.14614C31.575 5.71777 31.1917 6.20135 30.6725 6.4912C30.1533 6.78105 29.5405 6.85361 28.968 6.69301C26.2877 5.92336 23.4653 5.78697 20.7233 6.29461C17.9813 6.80225 15.3947 7.94004 13.1676 9.61822C10.9405 11.2964 9.13376 13.4691 7.88989 15.9649C6.64603 18.4607 5.99906 21.2114 6.00002 24Z" fill="black"/>
<path d="M15 24C15.0002 25.6397 15.4481 27.2483 16.2953 28.6523C17.1426 30.0562 18.357 31.2022 19.8077 31.9666C21.2584 32.731 22.8903 33.0848 24.5273 32.9899C26.1644 32.895 27.7444 32.3549 29.097 31.428C30.4494 30.4987 31.522 29.2173 32.1988 27.7225C32.8756 26.2277 33.1309 24.5763 32.937 22.947C32.8846 22.5516 32.9385 22.1493 33.0932 21.7817C33.2479 21.414 33.4977 21.0943 33.8171 20.8553C34.1364 20.6163 34.5137 20.4668 34.91 20.4221C35.3064 20.3774 35.7075 20.4391 36.072 20.601C36.4365 20.7607 36.7521 21.0142 36.9866 21.3357C37.2211 21.6572 37.3662 22.0351 37.407 22.431C37.733 25.2153 37.1841 28.032 35.8366 30.4902C34.489 32.9484 32.4097 34.9261 29.8871 36.1488C27.3645 37.3716 24.5238 37.7787 21.7593 37.3137C18.9948 36.8487 16.4437 35.5347 14.4599 33.5539C12.4762 31.5732 11.1582 29.024 10.689 26.2603C10.2198 23.4965 10.6227 20.6552 11.8416 18.1308C13.0605 15.6063 15.0351 13.5239 17.4912 12.1727C19.9474 10.8214 22.7632 10.2682 25.548 10.59C25.8462 10.6176 26.1359 10.7045 26.4 10.8456C26.6642 10.9867 26.8975 11.179 27.0864 11.4115C27.2752 11.6439 27.4158 11.9117 27.4998 12.1991C27.5838 12.4865 27.6096 12.7879 27.5757 13.0854C27.5417 13.3829 27.4487 13.6707 27.3021 13.9318C27.1555 14.1929 26.9582 14.4222 26.7219 14.6061C26.4856 14.79 26.2149 14.9249 25.9257 15.0028C25.6366 15.0807 25.3348 15.1002 25.038 15.06C23.777 14.9135 22.4993 15.0356 21.2887 15.418C20.0782 15.8004 18.9623 16.4347 18.0143 17.279C17.0663 18.1233 16.3076 19.1586 15.7881 20.317C15.2686 21.4753 15 22.7305 15 24Z" fill="black"/>
</g>
<defs>
<clipPath id="clip0_42_135">
<rect width="48" height="48" fill="white"/>
</clipPath>
</defs>
</svg>
