<svg width="48" height="48" viewBox="0 0 48 48" fill="none" xmlns="http://www.w3.org/2000/svg">
<rect width="48" height="48" fill="white"/>
<circle cx="24" cy="24" r="21.5" fill="white" stroke="black" stroke-width="3"/>
<path d="M20.7273 28.1506V27.7159C20.7358 26.2244 20.8679 25.0355 21.1236 24.1491C21.3878 23.2628 21.7713 22.5469 22.2741 22.0014C22.777 21.456 23.3821 20.9616 24.0895 20.5185C24.6179 20.1776 25.0909 19.8239 25.5085 19.4574C25.9261 19.0909 26.2585 18.6861 26.5057 18.2429C26.7528 17.7912 26.8764 17.2884 26.8764 16.7344C26.8764 16.1463 26.7358 15.6307 26.4545 15.1875C26.1733 14.7443 25.794 14.4034 25.3168 14.1648C24.848 13.9261 24.3281 13.8068 23.7571 13.8068C23.2031 13.8068 22.679 13.9304 22.1847 14.1776C21.6903 14.4162 21.2855 14.7741 20.9702 15.2514C20.6548 15.7202 20.4844 16.304 20.4588 17.0028H15.2429C15.2855 15.2983 15.6946 13.892 16.4702 12.7841C17.2457 11.6676 18.2727 10.8366 19.5511 10.2912C20.8295 9.73721 22.2401 9.46023 23.7827 9.46023C25.4787 9.46023 26.9787 9.74148 28.2827 10.304C29.5866 10.858 30.6094 11.6634 31.3509 12.7202C32.0923 13.777 32.4631 15.0511 32.4631 16.5426C32.4631 17.5398 32.2969 18.4261 31.9645 19.2017C31.6406 19.9687 31.1847 20.6506 30.5966 21.2472C30.0085 21.8352 29.3139 22.3679 28.5128 22.8452C27.8395 23.2457 27.2855 23.6634 26.8509 24.098C26.4247 24.5327 26.1051 25.0355 25.892 25.6065C25.6875 26.1776 25.581 26.8807 25.5724 27.7159V28.1506H20.7273ZM23.2585 36.3324C22.4062 36.3324 21.6776 36.0341 21.0724 35.4375C20.4759 34.8324 20.1818 34.108 20.1903 33.2642C20.1818 32.429 20.4759 31.7131 21.0724 31.1165C21.6776 30.5199 22.4062 30.2216 23.2585 30.2216C24.0682 30.2216 24.7798 30.5199 25.3935 31.1165C26.0071 31.7131 26.3182 32.429 26.3267 33.2642C26.3182 33.8267 26.169 34.3423 25.8793 34.8111C25.598 35.2713 25.2273 35.642 24.767 35.9233C24.3068 36.196 23.804 36.3324 23.2585 36.3324Z" fill="black"/>
</svg>
