<svg width="48" height="48" viewBox="0 0 48 48" fill="none" xmlns="http://www.w3.org/2000/svg">
<g clip-path="url(#clip0_42_340)">
<rect width="48" height="48" fill="#3337BC"/>
<path d="M37.4583 15.25L37.0553 14.5797C36.7555 14.0812 36.9428 13.4331 37.4622 13.1713L40.8253 11.4765C41.3385 11.2179 41.9637 11.444 42.1926 11.9712L47.6384 24.511C47.8435 24.9833 47.6563 25.5343 47.2059 25.7839L44.1582 27.4734C43.6468 27.7569 43.0022 27.543 42.7618 27.0099L42.4896 26.4062M37.4583 15.25L36.0252 15.5148C35.0838 15.6888 34.1122 15.5888 33.226 15.2268L28.519 13.3042C26.6736 12.5504 24.5568 12.9648 23.1319 14.3588L18.0791 19.3017C17.6021 19.7683 17.3333 20.4073 17.3333 21.0745V21.2283C17.3333 22.1155 17.8562 22.9194 18.6672 23.2791V23.2791C19.3332 23.5744 20.1011 23.528 20.7266 23.1545L24.6743 20.7978C25.4357 20.3433 26.4054 20.4443 27.0567 21.0461L37.4583 30.6562M37.4583 15.25L42.4896 26.4062M37.4583 30.6562L42.4896 26.4062M37.4583 30.6562V30.6562C38.388 32.4601 37.2369 34.6384 35.2228 34.8865L35.0625 34.9062M35.0625 34.9062L27.875 28.5312M35.0625 34.9062V34.9062C35.627 36.7838 33.7282 38.4583 31.936 37.6635L31.7083 37.5625M31.7083 37.5625L25.4792 32.25M31.7083 37.5625L31.7711 37.8178C32.2591 39.8016 30.0551 41.3502 28.3542 40.2188V40.2188M28.3542 40.2188L23.5625 35.9688M28.3542 40.2188V40.2188C27.9081 42.4442 25.2996 43.4506 23.4744 42.1015L23.0833 41.8125M23.0833 41.8125L20.897 39.3885C20.7582 39.2346 20.6441 39.0601 20.5589 38.8712L20.2083 38.0938M23.0833 41.8125L21.1667 39.1562L20.2083 38.0938M20.2083 38.0938L16.375 34.9062M20.2083 38.0938L18.9306 37.0312L16.375 34.9062M16.375 34.9062L13.0208 32.25M13.0208 32.25L10.1458 28.5312M13.0208 32.25L13.2292 32.415L10.1458 28.5312M10.1458 28.5312L7.4838 26.4062M7.4838 26.4062L7.23041 26.9897C6.99526 27.5312 6.34466 27.7522 5.82834 27.466L2.78198 25.7772C2.33668 25.5304 2.14794 24.9884 2.34362 24.5183L7.36998 12.4441C7.58055 11.9383 8.15894 11.6961 8.66709 11.901L12.0685 13.2723C12.5903 13.4827 12.8359 14.082 12.6118 14.5981L7.4838 26.4062Z" stroke="white" stroke-width="2"/>
<path d="M11 16.5L12.9106 16.7939C13.7877 16.9289 14.6849 16.8279 15.5102 16.5015L20.3862 14.5725C21.3286 14.1997 22.3622 14.122 23.3498 14.3499L24 14.5" stroke="white" stroke-width="2"/>
<rect x="0.0721159" y="1.49196" width="3.47837" height="6.60159" rx="1.73918" transform="matrix(0.700276 0.713872 -0.62816 0.778084 13.5212 25.7574)" fill="#3337BC" stroke="white" stroke-width="2"/>
<rect x="0.0721159" y="1.49196" width="3.47837" height="7.94491" rx="1.73918" transform="matrix(0.700276 0.713872 -0.62816 0.778084 17.2015 28.2969)" fill="#3337BC" stroke="white" stroke-width="2"/>
<rect x="0.0721159" y="1.49196" width="3.19982" height="7.30493" rx="1.59991" transform="matrix(0.700276 0.713872 -0.62816 0.778084 20.3257 31.7043)" fill="#3337BC" stroke="white" stroke-width="2"/>
<rect x="0.0721159" y="1.49196" width="3.05552" height="5.0822" rx="1.52776" transform="matrix(0.700276 0.713872 -0.62816 0.778084 22.5793 35.798)" fill="#3337BC" stroke="white" stroke-width="2"/>
<rect width="5.49651" height="14.4487" transform="matrix(0.88391 0.467656 -0.386447 0.922312 7.58362 11.5647)" fill="white"/>
<rect width="5.50579" height="15.4848" transform="matrix(-0.875134 0.483882 -0.401113 -0.916028 47.5001 25.1846)" fill="white"/>
</g>
<defs>
<clipPath id="clip0_42_340">
<rect width="48" height="48" fill="white"/>
</clipPath>
</defs>
</svg>
