<svg width="48" height="48" viewBox="0 0 48 48" fill="none" xmlns="http://www.w3.org/2000/svg">
<g clip-path="url(#clip0_40_96)">
<rect width="48" height="48" fill="white"/>
<path d="M18.3293 34.3344H27.6648L32.4749 21.1075C33.1511 19.2493 33.2925 17.2779 32.8868 15.3625C32.4811 13.4471 31.5405 11.6448 30.1457 10.1105L24.101 3.46292C23.97 3.31875 23.8025 3.20212 23.6112 3.12191C23.42 3.04169 23.2099 3 22.9971 3C22.7842 3 22.5741 3.04169 22.3829 3.12191C22.1916 3.20212 22.0241 3.31875 21.8931 3.46292L15.8484 10.1105C14.4536 11.6448 13.513 13.4471 13.1073 15.3625C12.7016 17.2779 12.843 19.2493 13.5192 21.1075L18.3293 34.3344ZM18.3293 34.3344L11.3277 38.345C11.3277 38.345 6.65998 30.3239 14.8285 25.3106M18.3293 40.3503C18.3293 44.3609 22.9971 46.3662 22.9971 46.3662C22.9971 46.3662 27.6648 44.3609 27.6648 40.3503M32.1715 25.3106C40.34 30.3239 35.6723 38.345 35.6723 38.345L28.6707 34.3344" stroke="black" stroke-width="2.5" stroke-linecap="round" stroke-linejoin="round"/>
<path d="M22.9971 22.3027C21.7591 22.3027 20.5719 21.8801 19.6965 21.128C18.8211 20.3759 18.3293 19.3558 18.3293 18.2921C18.3293 17.2284 18.8211 16.2083 19.6965 15.4562C20.5719 14.704 21.7591 14.2815 22.9971 14.2815C24.235 14.2815 25.4223 14.704 26.2977 15.4562C27.173 16.2083 27.6648 17.2284 27.6648 18.2921C27.6648 19.3558 27.173 20.3759 26.2977 21.128C25.4223 21.8801 24.235 22.3027 22.9971 22.3027Z" stroke="black" stroke-width="2.5" stroke-linecap="round" stroke-linejoin="round"/>
</g>
<defs>
<clipPath id="clip0_40_96">
<rect width="48" height="48" fill="white"/>
</clipPath>
</defs>
</svg>
