<svg width="48" height="48" viewBox="0 0 48 48" fill="none" xmlns="http://www.w3.org/2000/svg">
<g clip-path="url(#clip0_42_168)">
<rect width="48" height="48" fill="white"/>
<path d="M23.5 2.41663C35.6966 2.41663 45.5834 12.3033 45.5834 24.5C45.5834 36.6966 35.6966 46.5833 23.5 46.5833C11.3034 46.5833 1.41669 36.6966 1.41669 24.5C1.41669 12.3033 11.3034 2.41663 23.5 2.41663ZM23.5 6.83329C18.8145 6.83329 14.3209 8.6946 11.0078 12.0077C7.69466 15.3209 5.83335 19.8145 5.83335 24.5C5.83335 29.1854 7.69466 33.679 11.0078 36.9922C14.3209 40.3053 18.8145 42.1666 23.5 42.1666C28.1855 42.1666 32.6791 40.3053 35.9922 36.9922C39.3054 33.679 41.1667 29.1854 41.1667 24.5C41.1667 19.8145 39.3054 15.3209 35.9922 12.0077C32.6791 8.6946 28.1855 6.83329 23.5 6.83329ZM23.5 11.25C24.0409 11.25 24.563 11.4486 24.9672 11.808C25.3714 12.1675 25.6296 12.6627 25.6929 13.1999L25.7084 13.4583V23.5857L31.6863 29.5637C32.0824 29.9611 32.3123 30.4943 32.3294 31.0551C32.3466 31.6159 32.1496 32.1622 31.7785 32.5831C31.4074 33.0039 30.8901 33.2677 30.3316 33.3209C29.773 33.3741 29.2152 33.2127 28.7713 32.8695L28.5637 32.6862L21.9387 26.0612C21.5955 25.7177 21.3751 25.2707 21.3116 24.7892L21.2917 24.5V13.4583C21.2917 12.8726 21.5243 12.3109 21.9385 11.8968C22.3526 11.4826 22.9143 11.25 23.5 11.25Z" fill="black"/>
</g>
<defs>
<clipPath id="clip0_42_168">
<rect width="48" height="48" fill="white"/>
</clipPath>
</defs>
</svg>
